# xmcd
#
# Track frame offsets: 
#        150
#        9623
#        20114
#        27192
#        37282
#        49971
#        60408
#        72498
#
# Disc length: 1138 seconds
#
# Revision: 0
# Processed by: cddbd v1.5.2PL0 Copyright (c) Steve Scherf et al.
# Submitted via: ExactAudioCopy v1.0b1
#
DISCID=70047008
DTITLE=The Blackwoods - A Christmas Celebration
DYEAR=1900
DGENRE=Religious
TTITLE0=I'll be Home for Christmas
TTITLE1=Silent Night
TTITLE2=Away in a Manger
TTITLE3=Silver Bells
TTITLE4=Santa Claus is Coming to Town (in a Boogie Woogie Choo-choo Tr
TTITLE4=ain
TTITLE5=Winter Wonderland
TTITLE6=White Christmas
TTITLE7=Sleigh Ride
EXTD=
EXTT0=
EXTT1=
EXTT2=
EXTT3=
EXTT4=
EXTT5=
EXTT6=
EXTT7=
PLAYORDER=
